<svg xmlns="http://www.w3.org/2000/svg" xmlns:xlink="http://www.w3.org/1999/xlink" viewBox="0 0 64 64">
  <defs>
    <linearGradient id="a" x1="3.2173" y1="15" x2="44.7812" y2="15" gradientUnits="userSpaceOnUse">
      <stop offset="0" stop-color="#d93025"/>
      <stop offset="1" stop-color="#ea4335"/>
    </linearGradient>
    <linearGradient id="b" x1="20.7219" y1="47.6791" x2="41.5039" y2="11.6837" gradientUnits="userSpaceOnUse">
      <stop offset="0" stop-color="#fcc934"/>
      <stop offset="1" stop-color="#fbbc04"/>
    </linearGradient>
    <linearGradient id="c" x1="26.5981" y1="46.5015" x2="5.8161" y2="10.506" gradientUnits="userSpaceOnUse">
      <stop offset="0" stop-color="#1e8e3e"/>
      <stop offset="1" stop-color="#34a853"/>
    </linearGradient>
    
    <path id="p" d="M13.6086 30.0031 3.218 12.006A23.994 23.994 0 0 0 24.0025 48l10.3906-17.9971-.0067-.0068a11.9852 11.9852 0 0 1-20.7778.007Z"/>
  </defs>
  
  <use xlink:href="#p" fill="url(#a)" transform="translate(8 8) rotate(120 24 24)" filter="hue-rotate(120deg)"/>
  <use xlink:href="#p" fill="url(#b)" transform="translate(8 8) rotate(-120 24 24)" filter="hue-rotate(120deg)"/>
  <use xlink:href="#p" fill="url(#c)" transform="translate(8 8)" filter="hue-rotate(120deg)"/>
  
  <circle cx="32" cy="32" r="12" style="fill:#fff"/>
  <circle cx="32" cy="32" r="9.5" style="fill:#1a73e8" filter="hue-rotate(120deg)"/>
  <path d="M 2,32  A 31,31  0  0,0 62,32 A 31,31  0  0,0 2,32  Z" style="stroke: white; stroke-width: 3; fill: transparent"/>
</svg>
